Jump_normalized_pl08_filtered_grf
version=1
nRows=15
nColumns=37
inDegrees=yes
endheader
time		1_ground_force_vx		1_ground_force_vy		1_ground_force_vz		1_ground_force_px		1_ground_force_py		1_ground_force_pz		1_ground_torque_x		1_ground_torque_y		1_ground_torque_z		2_ground_force_vx		2_ground_force_vy		2_ground_force_vz		2_ground_force_px		2_ground_force_py		2_ground_force_pz		2_ground_torque_x		2_ground_torque_y		2_ground_torque_z		3_ground_force_vx		3_ground_force_vy		3_ground_force_vz		3_ground_force_px		3_ground_force_py		3_ground_force_pz		3_ground_torque_x		3_ground_torque_y		3_ground_torque_z		4_ground_force_vx		4_ground_force_vy		4_ground_force_vz		4_ground_force_px		4_ground_force_py		4_ground_force_pz		4_ground_torque_x		4_ground_torque_y		4_ground_torque_z		
0.084500		0.000000		-0.000000		-0.000000		0.144966		0.000000		0.187903		-0.000000		-0.000000		0.000000		0.000000		0.000000		0.000000		-0.143518		0.000000		0.238076		0.000000		-0.000000		0.000000		-25.422232		370.416896		343.524573		0.374332		1.308963		1.916040		0.933421		-13.600494		-12.613096		-14.970264		466.892072		371.314604		-0.266320		1.308766		1.927833		-0.605094		18.871659		15.008442		
0.086924		-0.000000		-0.000000		0.000000		0.144966		0.000000		0.187903		-0.000000		0.000000		0.000000		0.000000		0.000000		0.000000		-0.143518		0.000000		0.238076		0.000000		-0.000000		0.000000		-24.933363		369.306012		349.788224		0.374283		1.309032		1.916189		0.921306		-13.646146		-12.924958		-15.440507		467.141470		376.279604		-0.266330		1.308763		1.927934		-0.624570		18.895913		15.220543		
0.089348		-0.000000		0.000000		0.000000		0.144966		0.000000		0.187903		0.000000		0.000000		-0.000000		0.000000		0.000000		0.000000		-0.143518		0.000000		0.238076		0.000000		-0.000000		0.000000		-24.317906		367.570325		356.129356		0.374235		1.309093		1.916336		0.905287		-13.683633		-13.257738		-15.813223		467.073178		381.332144		-0.266334		1.308759		1.928036		-0.640162		18.908401		15.437371		
0.091773		-0.000000		0.000000		0.000000		0.144966		0.000000		0.187903		0.000000		0.000000		-0.000000		0.000000		0.000000		0.000000		-0.143518		0.000000		0.238076		0.000000		-0.000000		0.000000		-23.586366		365.194228		362.408710		0.374191		1.309143		1.916474		0.885543		-13.711147		-13.606597		-16.115846		466.643317		386.537228		-0.266331		1.308756		1.928141		-0.653002		18.908031		15.662196		
0.094197		-0.000000		0.000000		0.000000		0.144966		0.000000		0.187903		0.000000		0.000000		-0.000000		-0.000000		0.000000		0.000000		-0.143518		0.000000		0.238076		0.000000		-0.000000		0.000000		-22.741835		362.172461		368.468453		0.374152		1.309182		1.916601		1.246861		36.954869		-63.757249		-16.382661		465.800216		391.958589		-0.266324		1.308754		1.928250		-0.664512		18.893730		15.898579		
0.096621		-0.000000		0.000000		0.000000		0.144966		0.000000		0.187903		0.000000		0.000000		-0.000000		-0.000000		0.000000		0.000000		-0.143518		0.000000		0.238076		0.000000		-0.000000		0.000000		-21.778623		358.507590		374.153826		0.374120		1.309207		1.916716		1.431325		37.945282		-63.805868		-16.649926		464.493341		397.644492		-0.266312		1.308755		1.928365		-0.676207		18.864550		16.149610		
0.099045		-0.000000		0.000000		0.000000		0.144966		0.000000		0.187903		0.000000		0.000000		-0.000000		-0.000000		0.000000		0.000000		-0.143518		0.000000		0.238076		0.000000		-0.000000		0.000000		-20.685743		354.206585		379.331217		0.374096		1.309218		1.916818		1.614546		38.881875		-63.755803		-16.951051		462.682917		403.615796		-0.266299		1.308761		1.928485		-0.689494		18.819898		16.417310		
0.101470		-0.000000		0.000000		0.000000		0.144966		0.000000		0.187903		0.000000		0.000000		-0.000000		-0.000000		-0.000000		-0.000000		-0.143518		0.000000		0.238076		-0.000000		0.000000		-0.000000		-19.452114		349.276685		383.895447		0.374080		1.309216		1.916907		1.788801		39.748164		-63.599528		-17.312773		460.345664		409.859060		-0.266283		1.308771		1.928611		-0.705520		18.759749		16.702349		
0.103894		0.000000		-0.000000		-0.000000		0.144966		0.000000		0.187903		-0.000000		-0.000000		0.000000		-0.000000		-0.000000		-0.000000		-0.143518		0.000000		0.238076		-0.000000		0.000000		-0.000000		-18.071905		343.727684		387.770700		0.374074		1.309202		1.916988		1.947845		40.532241		-63.330718		-17.751809		457.479723		416.323902		-0.266269		1.308784		1.928742		-0.725038		18.684870		17.003947		
0.106318		0.000000		-0.000000		-0.000000		0.144966		0.000000		0.187903		-0.000000		-0.000000		0.000000		-0.000000		-0.000000		-0.000000		-0.143518		0.000000		0.238076		-0.000000		0.000000		-0.000000		-16.547717		337.576530		390.905473		0.374074		1.309178		1.917061		2.087377		41.226354		-62.944759		-18.272100		454.104771		422.929368		-0.266254		1.308801		1.928876		-0.748294		18.596854		17.320146		
0.108742		0.000000		-0.000000		-0.000000		0.144966		0.000000		0.187903		-0.000000		-0.000000		0.000000		-0.000000		-0.000000		-0.000000		-0.143518		0.000000		0.238076		-0.000000		0.000000		-0.000000		-14.890865		330.845622		393.255442		0.374076		1.309144		1.917130		0.605552		-13.454354		-15.992403		-18.865072		450.251089		429.578592		-0.266240		1.308817		1.929010		-0.775041		18.497821		17.648542		
0.111167		0.000000		-0.000000		-0.000000		0.144966		0.000000		0.187903		-0.000000		-0.000000		0.000000		0.000000		-0.000000		-0.000000		-0.143518		0.000000		0.238076		-0.000000		0.000000		-0.000000		-13.121157		323.569693		394.778463		0.374079		1.309105		1.917199		0.540341		-13.325071		-16.257601		-19.512169		445.953138		436.171900		-0.266224		1.308834		1.929141		-0.804643		18.390173		17.986833		
0.113591		0.000000		-0.000000		-0.000000		0.144966		0.000000		0.187903		-0.000000		-0.000000		0.000000		0.000000		-0.000000		-0.000000		-0.143518		0.000000		0.238076		-0.000000		0.000000		-0.000000		-11.265388		315.799242		395.433168		0.374079		1.309062		1.917271		0.469660		-13.165974		-16.486022		-20.189699		441.241066		442.617713		-0.266207		1.308849		1.929268		-0.836257		18.276154		18.333189		
0.116015		0.000000		-0.000000		-0.000000		0.144966		0.000000		0.187903		-0.000000		-0.000000		0.000000		0.000000		0.000000		-0.000000		-0.143518		0.000000		0.238076		0.000000		-0.000000		0.000000		-9.356015		307.601601		395.183520		0.374073		1.309021		1.917350		0.394700		-12.976764		-16.671581		-20.874076		436.134593		448.837577		-0.266189		1.308863		1.929386		-0.869042		18.157405		18.686266		
0.118439		-0.000000		-0.000000		-0.000000		0.144966		0.000000		0.187903		-0.000000		-0.000000		0.000000		0.000000		0.000000		0.000000		-0.143518		0.000000		0.238076		0.000000		-0.000000		0.000000		-7.430261		299.057993		394.001730		0.374060		1.308983		1.917438		0.316984		-12.758329		-16.808812		-21.546507		430.638942		454.764093		-0.266169		1.308876		1.929495		-0.902344		18.034657		19.045005		
